<?xml version="1.0" encoding="UTF-8"?>
<svg height="16px" viewBox="0 0 16 16" width="16px" xmlns="http://www.w3.org/2000/svg" fill="#2e3436">
  <path fill-rule="evenodd" d="M3 3h10v10H3z m1.5 1.5v7h7v-7z"/>
  <rect x="6.25" y="6.25" width="3.5" height="3.5"/>
  <rect x="5" y="0.5" width="1" height="2.5"/>
  <rect x="7.5" y="0.5" width="1" height="2.5"/>
  <rect x="10" y="0.5" width="1" height="2.5"/>
  <rect x="5" y="13" width="1" height="2.5"/>
  <rect x="7.5" y="13" width="1" height="2.5"/>
  <rect x="10" y="13" width="1" height="2.5"/>
  <rect x="0.5" y="5" width="2.5" height="1"/>
  <rect x="0.5" y="7.5" width="2.5" height="1"/>
  <rect x="0.5" y="10" width="2.5" height="1"/>
  <rect x="13" y="5" width="2.5" height="1"/>
  <rect x="13" y="7.5" width="2.5" height="1"/>
  <rect x="13" y="10" width="2.5" height="1"/>
</svg>
